<svg width="30" height="30" viewBox="0 0 30 30" fill="none" xmlns="http://www.w3.org/2000/svg">
<g clip-path="url(#clip0_1078_1586)">
<path d="M28.448 2.17148C28.1563 1.52044 27.323 1.4944 26.974 2.10898C25.3595 4.91627 22.4688 6.66627 19.1667 6.66627H15.0001C9.47925 6.66627 5.00008 11.1454 5.00008 16.6663C5.00008 17.0309 5.04175 17.3798 5.07821 17.734C8.40112 15.3538 13.198 13.3329 20.0001 13.3329C20.4584 13.3329 20.8334 13.7079 20.8334 14.1663C20.8334 14.6246 20.4584 14.9996 20.0001 14.9996C6.90633 14.9996 1.35425 23.0256 0.12508 26.0413C-0.21867 26.8902 0.18758 27.859 1.03654 28.2079C1.8907 28.5621 2.85945 28.1506 3.21362 27.3069C3.29175 27.1194 4.30216 24.8121 6.95841 22.5881C8.64591 24.8746 11.8542 27.0569 16.0678 26.609C24.2449 26.0152 30.0001 18.6819 30.0001 9.70273C30.0001 7.08815 29.4376 4.37981 28.448 2.17148Z" fill="#83A0B1"/>
</g>
<defs>
<clipPath id="clip0_1078_1586">
<rect width="30" height="30" fill="white"/>
</clipPath>
</defs>
</svg>
